<?xml version="1.0" standalone="no"?>
<!DOCTYPE svg PUBLIC "-//W3C//DTD SVG 20010904//EN"
 "http://www.w3.org/TR/2001/REC-SVG-20010904/DTD/svg10.dtd">
<svg version="1.0" xmlns="http://www.w3.org/2000/svg"
 width="242.000000pt" height="241.000000pt" viewBox="0 0 242.000000 241.000000"
 preserveAspectRatio="xMidYMid meet">

<g transform="translate(0.000000,241.000000) scale(0.100000,-0.100000)"
fill="#000000" stroke="none">
<path d="M735 2389 c-142 -8 -201 -18 -286 -48 -238 -82 -382 -271 -420 -551
-13 -100 -20 -744 -9 -940 l7 -135 3 110 c2 83 5 99 10 65 5 -37 8 -41 15 -25
10 24 37 45 47 39 5 -3 8 6 8 20 0 16 7 27 20 31 11 3 28 17 39 31 32 41 41
30 43 -58 1 -46 5 113 9 352 4 260 12 465 19 510 15 95 66 203 120 258 58 58
164 106 270 123 116 19 1006 20 1131 1 207 -30 319 -115 376 -285 36 -105 46
-311 40 -812 -5 -464 -10 -507 -68 -615 -57 -107 -171 -186 -305 -212 -35 -6
-247 -14 -514 -18 l-455 -6 325 -3 c179 -2 331 -4 339 -5 23 -2 25 -26 2 -26
-12 0 -21 -4 -21 -10 0 -5 12 -10 26 -10 21 0 24 -4 19 -20 -4 -11 -2 -20 4
-20 6 0 11 -4 11 -10 0 -5 -9 -10 -21 -10 -11 0 -17 -4 -14 -10 3 -5 17 -10
31 -10 19 0 24 -5 24 -25 l0 -25 -157 -3 c-87 -2 -30 -3 127 -2 299 2 319 5
451 54 175 66 320 233 369 428 27 105 40 330 40 708 0 363 -13 573 -40 679
-46 180 -164 329 -322 405 -107 52 -184 69 -373 81 -172 11 -727 11 -920 -1z"/>
<path d="M1800 1977 c-65 -16 -100 -67 -100 -143 0 -42 4 -51 40 -86 37 -34
46 -38 95 -38 46 0 59 4 89 31 111 97 19 274 -124 236z"/>
<path d="M1075 1803 c-211 -45 -398 -222 -459 -435 -10 -35 -16 -94 -16 -160
0 -92 2 -104 20 -116 11 -7 20 -19 20 -27 0 -8 4 -15 9 -15 12 0 -9 71 -26 88
-15 16 -18 66 -3 57 6 -4 10 -12 9 -18 -3 -25 1 -38 11 -32 6 4 8 16 5 28 -5
17 -4 19 4 7 6 -8 11 -28 12 -45 1 -24 3 -25 6 -7 2 12 9 20 14 17 5 -4 9 1 9
9 0 9 -4 16 -9 16 -5 0 -7 9 -4 20 7 25 23 16 23 -13 0 -12 9 -33 20 -47 l20
-25 0 33 c0 17 4 32 9 32 5 0 12 10 14 23 3 15 5 12 6 -11 0 -18 5 -31 10 -28
5 3 11 -9 14 -27 6 -39 46 -132 53 -125 2 3 -5 27 -17 54 -18 40 -22 68 -23
154 0 96 2 110 29 165 35 73 123 163 187 193 203 94 439 13 538 -185 33 -64
35 -74 35 -173 0 -99 -2 -110 -32 -170 -42 -85 -112 -155 -193 -194 -60 -29
-73 -31 -170 -31 -91 0 -112 3 -155 24 -27 14 -54 27 -60 30 -5 2 -4 -3 3 -12
17 -20 112 -57 150 -58 l27 -1 -25 -9 c-18 -6 -14 -7 18 -3 52 7 137 -5 108
-16 -17 -6 -16 -8 10 -28 46 -34 66 -56 55 -60 -27 -9 -7 -18 34 -16 25 1 45
1 45 -1 0 -11 -51 -29 -105 -36 -33 -5 -80 -13 -105 -18 -41 -9 -39 -9 25 -5
96 7 155 21 228 56 73 35 159 96 152 108 -3 4 2 7 10 6 19 -1 96 102 134 179
31 66 61 188 61 255 0 22 -7 74 -15 115 -40 194 -154 342 -332 429 -124 62
-254 78 -388 49z m305 -983 c-20 -13 -33 -13 -25 0 3 6 14 10 23 10 15 0 15
-2 2 -10z m-12 -20 c11 0 6 -6 -12 -15 -32 -17 -49 -20 -26 -5 10 6 11 10 3
10 -7 0 -13 5 -13 11 0 6 7 8 16 5 9 -3 23 -6 32 -6z m-80 -7 c-10 -2 -26 -2
-35 0 -10 3 -2 5 17 5 19 0 27 -2 18 -5z"/>
<path d="M762 1094 c-7 -8 -8 -14 -3 -14 10 0 25 19 20 25 -2 1 -10 -3 -17
-11z"/>
<path d="M611 1080 c0 -8 4 -24 9 -35 l9 -20 0 20 c0 11 -4 27 -9 35 -9 13
-10 13 -9 0z"/>
<path d="M780 1073 c0 -5 9 -21 20 -38 24 -36 26 -26 5 15 -15 29 -25 38 -25
23z"/>
<path d="M765 1050 c8 -26 22 -47 28 -39 3 2 -4 18 -15 34 -18 27 -19 28 -13
5z"/>
<path d="M652 964 c11 -26 33 -66 48 -90 22 -36 29 -41 34 -27 4 10 4 14 0 10
-8 -8 -40 34 -55 73 -23 58 -34 80 -41 80 -4 0 2 -21 14 -46z"/>
<path d="M844 978 c-4 -7 -3 -8 4 -4 7 4 12 3 12 -2 0 -11 91 -102 103 -102 6
0 -13 23 -42 51 -28 29 -51 56 -51 60 0 13 -18 11 -26 -3z"/>
<path d="M845 940 c3 -5 11 -10 16 -10 6 0 7 5 4 10 -3 6 -11 10 -16 10 -6 0
-7 -4 -4 -10z"/>
<path d="M740 891 c0 -6 4 -13 10 -16 6 -3 7 1 4 9 -7 18 -14 21 -14 7z"/>
<path d="M740 816 c0 -2 8 -10 18 -17 15 -13 16 -12 3 4 -13 16 -21 21 -21 13z"/>
<path d="M780 783 c0 -12 28 -38 34 -32 2 2 -5 13 -15 23 -11 11 -19 15 -19 9z"/>
<path d="M830 741 c0 -13 39 -35 48 -27 3 3 0 6 -6 6 -6 0 -18 7 -26 16 -9 8
-16 11 -16 5z"/>
<path d="M970 656 c14 -8 27 -12 29 -10 6 6 -1 11 -29 18 l-25 7 25 -15z"/>
<path d="M1270 660 c0 -5 5 -10 10 -10 6 0 10 5 10 10 0 6 -4 10 -10 10 -5 0
-10 -4 -10 -10z"/>
<path d="M1330 650 c-11 -8 -7 -9 15 -4 37 8 45 14 19 14 -10 0 -26 -5 -34
-10z"/>
<path d="M1018 633 c7 -3 16 -2 19 1 4 3 -2 6 -13 5 -11 0 -14 -3 -6 -6z"/>
<path d="M1080 620 c0 -6 17 -10 37 -10 43 0 41 5 -4 13 -19 4 -33 2 -33 -3z"/>
</g>
</svg>
